<svg width="24" height="24" viewBox="0 0 24 24" fill="none" xmlns="http://www.w3.org/2000/svg">
<path fill-rule="evenodd" clip-rule="evenodd" d="M12.0004 8.17815C11.2443 8.17621 10.5045 8.39865 9.87485 8.81732C9.24517 9.23599 8.75386 9.83206 8.46309 10.5301C8.17233 11.2281 8.0952 11.9967 8.24145 12.7386C8.38771 13.4805 8.75078 14.1623 9.28471 14.6977C9.81864 15.2332 10.4994 15.5982 11.2409 15.7465C11.9824 15.8949 12.7512 15.8199 13.45 15.5311C14.1489 15.2424 14.7463 14.7527 15.1668 14.1242C15.5872 13.4957 15.8118 12.7566 15.812 12.0005C15.8122 10.9885 15.411 10.0178 14.6965 9.30125C13.982 8.58469 13.0124 8.18079 12.0004 8.17815ZM22.0737 11.5259C21.9565 11.2339 19.1304 4.35687 12.0004 4.35687C4.87049 4.35687 2.04443 11.2339 1.92724 11.5259C1.80615 11.83 1.80615 12.1689 1.92724 12.4731C2.04443 12.7661 4.87054 19.6431 12.0004 19.6431C19.1303 19.6431 21.9565 12.7661 22.0737 12.4731C22.1939 12.1688 22.1939 11.8302 22.0737 11.5259ZM12.0004 17.0952C7.49463 17.0952 5.19574 13.3618 4.50824 12.0024C5.19574 10.6597 7.52002 6.90478 12.0004 6.90478C16.5093 6.90478 18.8071 10.641 19.4927 11.9966C18.8052 13.3403 16.4819 17.0952 12.0004 17.0952Z" fill="#424242"/>
</svg>
