<svg width="24" height="24" viewBox="0 0 24 24" fill="none" xmlns="http://www.w3.org/2000/svg">
<path fill-rule="evenodd" clip-rule="evenodd" d="M19.4346 12.0004C19.1983 12.4506 18.9286 12.8825 18.6279 13.2924L20.4424 15.1176C21.0632 14.3 21.5839 13.4108 21.9932 12.4693C22.1065 12.167 22.1065 11.834 21.9932 11.5318C21.8799 11.2407 19.0694 4.39893 12 4.39893C11.3224 4.39293 10.6462 4.46104 9.98339 4.60205L12.3154 6.9458C16.5869 7.1098 18.7666 10.6821 19.4346 12.0004ZM21.7119 19.9731L4.0703 2.23682C3.95376 2.11895 3.81499 2.02537 3.66203 1.9615C3.50906 1.89763 3.34495 1.86475 3.17919 1.86475C3.01343 1.86475 2.84932 1.89763 2.69636 1.9615C2.5434 2.02537 2.40462 2.11895 2.28808 2.23682C2.05164 2.47488 1.91895 2.79679 1.91895 3.13232C1.91895 3.46785 2.05164 3.78976 2.28808 4.02782L5.24968 7.00536L5.24608 7.00829C5.01861 7.21142 4.80468 7.4262 4.60351 7.62929C4.5147 7.71816 4.43951 7.80709 4.36431 7.89498C4.1494 8.1235 3.95995 8.35198 3.78417 8.57949C3.708 8.68105 3.62011 8.7817 3.55761 8.88326C3.37121 9.12248 3.19873 9.37223 3.04101 9.63126C2.64244 10.2339 2.29646 10.8698 2.00689 11.5317C1.89361 11.834 1.89361 12.167 2.00689 12.4692C2.12108 12.7602 4.93065 19.602 12 19.602C12.3032 19.6048 12.6062 19.5878 12.9072 19.5512C13.2802 19.5279 13.6511 19.477 14.0166 19.3989C14.167 19.3735 14.3057 19.3481 14.4444 19.311H14.457C14.7852 19.2211 15.1123 19.1206 15.4151 19.0063C15.5396 18.9677 15.6616 18.9214 15.7803 18.8676C16.0731 18.7476 16.3594 18.612 16.6377 18.4614L16.6421 18.4588L19.9297 21.7641C20.0464 21.8816 20.1852 21.975 20.3382 22.0387C20.4911 22.1024 20.6551 22.1351 20.8208 22.1351C20.9865 22.1351 21.1505 22.1024 21.3035 22.0387C21.4564 21.975 21.5952 21.8816 21.7119 21.7641C21.9484 21.526 22.081 21.2041 22.081 20.8686C22.081 20.5331 21.9483 20.2112 21.7119 19.9731ZM14.7217 16.5356C14.4184 16.6737 14.1016 16.7798 13.7764 16.8521C13.6504 16.8911 13.5117 16.9165 13.374 16.9536C12.9909 17.021 12.6028 17.0549 12.2139 17.0551C12.1432 17.0669 12.0716 17.0715 12 17.0689C11.8947 17.0711 11.7893 17.0665 11.6846 17.0551C11.1915 17.0419 10.7015 16.9738 10.2236 16.8521C8.99027 16.491 7.84791 15.8716 6.87236 15.0351C5.89682 14.1987 5.1104 13.1642 4.56536 12.0004C4.64055 11.8481 4.7412 11.6704 4.85546 11.4555C4.99419 11.2271 5.15716 10.9741 5.35937 10.6958C5.43456 10.5942 5.51079 10.4926 5.58599 10.3911C5.76301 10.1494 5.95237 9.91702 6.15331 9.69482C6.22851 9.6059 6.30468 9.51703 6.39257 9.42822C6.59882 9.21298 6.81765 9.01015 7.0479 8.8208L7.05218 8.81744L8.60161 10.3752C8.45357 10.6776 8.34615 10.9981 8.28216 11.3286C8.24241 11.5504 8.2215 11.7751 8.21966 12.0004C8.21686 12.4333 8.29367 12.8629 8.44628 13.268C8.63249 13.7989 8.93515 14.2815 9.33207 14.6803C9.72898 15.0791 10.2101 15.384 10.7402 15.5727C11.1423 15.7264 11.5695 15.8039 12 15.8012C12.2241 15.7996 12.4476 15.7783 12.668 15.7377C12.997 15.6733 13.3159 15.5654 13.6164 15.4169L14.7268 16.5333L14.7217 16.5356Z" fill="#424242"/>
</svg>
