<svg width="84" height="40" viewBox="0 0 84 40" fill="none" xmlns="http://www.w3.org/2000/svg">
<path d="M4.73498 12.5846H0.498419C0.996838 9.37473 3.23972 7.81201 7.14401 7.81201C11.8375 7.81201 14.2049 9.37473 14.288 12.5846V18.4554C14.288 23.228 11.4636 25.3398 6.8948 25.6355C2.82437 25.9733 0 24.0305 0 20.2293C0.0830699 16.0902 3.03205 14.9921 7.35168 14.5697C9.17922 14.3585 10.093 13.7672 10.093 12.8381C10.0099 11.8666 9.09615 11.3598 7.35168 11.3598C5.81489 11.402 4.98419 11.7822 4.73498 12.5846ZM10.1345 18.2442V16.6393C9.13768 17.0616 7.97471 17.4417 6.72866 17.6952C5.02573 18.033 4.15349 18.8355 4.15349 20.1026C4.23656 21.4541 4.94266 22.1299 6.31331 22.1299C8.6808 22.1299 10.1345 20.6939 10.1345 18.2442Z" fill="#073142"/>
<path d="M15.3265 16.724C15.3265 10.98 17.9432 8.10794 23.2182 8.02347C28.4931 7.98123 31.1513 10.5154 31.1513 15.7104V25.8891C31.1513 30.2394 28.4516 32.3934 23.052 32.4779C19.1893 32.4779 16.7803 30.6618 15.7834 26.9873H20.4769C20.7676 28.2121 21.7645 28.8034 23.5089 28.8034C25.7518 28.8034 26.9148 27.4519 26.9148 24.791C26.9148 24.791 26.9148 24.8333 26.9148 23.0171C25.8349 24.7065 24.1735 25.5513 22.0967 25.5513C17.5694 25.6357 15.3265 22.6792 15.3265 16.724ZM26.9148 16.8507C26.9563 13.3874 25.7518 11.6557 23.3428 11.6557C20.8922 11.6557 19.7292 13.3874 19.7292 16.8507C19.8123 20.1873 20.9753 21.8345 23.3012 21.8345C25.6272 21.8345 26.7902 20.1873 26.9148 16.8507Z" fill="#073142"/>
<path d="M32.3977 16.4293C32.5223 10.8542 35.4298 8.10889 41.12 8.10889H41.7431V12.5859H40.2893C37.9219 12.5859 36.7173 13.8529 36.7173 16.3448V25.2988H32.3977V16.4293Z" fill="#073142"/>
<path d="M50.5059 25.7207C45.3971 25.5517 42.8219 22.5107 42.8219 16.6822C42.8219 10.8115 45.3971 7.89722 50.5889 7.85498C55.9885 7.85498 58.4806 11.1916 58.1898 17.9493H47.2246C47.3907 20.5679 48.5122 21.9194 50.5889 21.9194C51.5858 21.9194 52.4995 21.4971 53.3302 20.6946C53.7041 20.2723 54.2025 20.0611 54.784 20.0611H57.9406C56.9853 23.6933 54.6594 25.7207 50.5059 25.7207ZM47.2661 14.8661H53.621C53.3718 12.5854 52.2919 11.4028 50.4643 11.4028C48.6783 11.4028 47.5984 12.5854 47.2661 14.8661Z" fill="#073142"/>
<path d="M66.9543 25.7207C61.8456 25.5517 59.2704 22.5107 59.2704 16.6822C59.2704 10.8115 61.8456 7.89722 67.0374 7.85498C72.437 7.85498 74.9291 11.1916 74.6383 17.9493H63.6731C63.8392 20.5679 64.9607 21.9194 67.0374 21.9194C68.0343 21.9194 68.948 21.4971 69.7787 20.6946C70.1525 20.2723 70.651 20.0611 71.2324 20.0611H74.3891C73.4338 23.6933 71.1078 25.7207 66.9543 25.7207ZM63.7146 14.8661H70.111C69.8618 12.5854 68.7819 11.4028 66.9543 11.4028C65.1268 11.4028 64.0469 12.5854 63.7146 14.8661Z" fill="#073142"/>
<path fill-rule="evenodd" clip-rule="evenodd" d="M32.2293 8.95547C32.6446 8.99771 33.6 8.61759 34.0153 8.32194C34.7214 7.81511 35.1783 7.05487 35.3029 6.25239C35.386 5.74556 35.3444 5.87227 35.3444 5.40768C35.3444 5.28097 35.3029 5.11203 35.2613 4.94309C35.0121 3.92943 34.8045 3.80273 34.5968 3.25366L32.3539 5.36544C32.1462 5.57662 32.2293 5.61886 32.2293 6.08345C32.2293 6.59028 32.2293 7.01263 32.2293 7.51946V8.95547Z" fill="#3BA064"/>
<path fill-rule="evenodd" clip-rule="evenodd" d="M28.9075 4.22506L31.6903 6.88591C31.7318 6.71696 31.6903 4.22506 31.6903 3.76047C31.6903 3.676 31.7318 3.38035 31.6488 3.29588L30.1951 1.9021C29.8628 2.23998 29.0736 3.71823 28.9075 4.22506Z" fill="#3BA064"/>
<path fill-rule="evenodd" clip-rule="evenodd" d="M31.6483 8.99676C31.7314 8.87005 31.6898 8.15204 31.6898 7.94087C31.6898 7.64522 31.7729 7.68745 31.4822 7.43404L28.7409 4.77319C28.0763 6.8005 29.6131 8.74334 31.4822 8.95452C31.6068 8.95452 31.5652 8.91229 31.6483 8.99676Z" fill="#3BA064"/>
<path fill-rule="evenodd" clip-rule="evenodd" d="M32.2294 4.77263L34.3061 2.78755C34.14 2.3652 32.6447 0.422356 32.2294 0V4.77263Z" fill="#3BA064"/>
<path fill-rule="evenodd" clip-rule="evenodd" d="M30.4856 1.52048L31.6901 2.66085C31.7732 2.53414 31.7316 0.929184 31.7316 0.67577C31.7316 0.464592 31.7732 0.168943 31.7316 0C31.4409 0.253414 30.6517 1.22483 30.4856 1.52048Z" fill="#3BA064"/>
<path fill-rule="evenodd" clip-rule="evenodd" d="M31.7321 11.529C31.8982 11.698 32.0228 11.698 32.189 11.529C32.2305 11.4868 32.2305 11.3601 32.2305 11.2756C32.2305 11.2756 32.2305 11.2756 32.2305 11.2334V10.4731C32.2305 10.3042 32.2305 10.1352 32.2305 9.9663C32.2305 9.79736 32.272 9.54394 32.189 9.41724H31.6906C31.6906 9.54394 31.649 11.4445 31.7321 11.529Z" fill="#3BA064"/>
<path d="M34.2243 33.6191V39.7855H31.8153V34.1259C31.8153 31.3806 33.186 30.0291 35.8857 30.0291C37.0902 30.0291 38.0455 30.2825 38.7101 30.8315C39.3747 30.3247 40.33 30.0291 41.5345 30.0291C44.2342 30.0291 45.5634 31.3806 45.5634 34.1259V39.7855H44.3173C43.5282 39.7433 43.1543 39.3631 43.1543 38.6029V33.6613C43.1128 32.6477 42.5729 32.1831 41.4929 32.1831C40.413 32.1831 39.9146 32.6899 39.8731 33.6613V39.7855H37.4641V33.6191C37.4225 32.6054 36.8826 32.1408 35.8027 32.1408C34.7643 32.1408 34.2243 32.6054 34.2243 33.6191Z" fill="#66A80F"/>
<path d="M49.3846 32.6508H47.0171C47.3078 30.8769 48.5539 29.99 50.7137 29.99C53.3304 29.99 54.6595 30.8769 54.7011 32.6508V35.9452C54.7011 38.6061 53.1227 39.7887 50.5476 39.9576C48.2631 40.1265 46.6848 39.0707 46.6848 36.9166C46.7263 34.5937 48.3877 34.0024 50.7968 33.749C51.8351 33.6223 52.3336 33.3266 52.3336 32.7775C52.292 32.2285 51.7936 31.9751 50.7968 31.9751C49.9661 31.9751 49.5092 32.1862 49.3846 32.6508ZM52.3751 35.8185V34.9316C51.8351 35.185 51.1706 35.3539 50.4645 35.5229C49.5092 35.6918 49.0523 36.1564 49.0523 36.8744C49.0938 37.6346 49.5092 38.0148 50.2568 38.0148C51.5859 37.9725 52.3751 37.17 52.3751 35.8185Z" fill="#66A80F"/>
<path d="M55.8224 34.8039C55.9055 31.6784 57.5253 30.158 60.682 30.158H61.0143V32.6499H60.2251C58.896 32.6499 58.2314 33.3679 58.2314 34.7616V39.7877H55.8224V34.8039Z" fill="#66A80F"/>
<path d="M64.5454 28.5947V33.9164L67.4943 30.4953H70.3602L67.079 34.0431L70.4018 39.7449H67.5359L65.8329 36.5772C65.5422 36.0282 65.2099 35.7748 64.9192 35.7748C64.67 35.817 64.5454 35.9859 64.5454 36.2394V39.7449H62.1779V27.4121H63.4239C64.0054 27.4121 64.5454 27.9189 64.5454 28.5947Z" fill="#66A80F"/>
<path d="M74.4317 39.9998C71.5657 39.9154 70.1536 38.2259 70.1536 34.9316C70.1536 31.6372 71.6073 30.0322 74.4732 29.99C77.4637 29.99 78.8759 31.8484 78.7098 35.6496H72.6041C72.6872 37.1278 73.3102 37.8881 74.4732 37.8881C75.0131 37.8881 75.5531 37.6346 76.01 37.2123C76.2177 36.9589 76.5084 36.8744 76.7992 36.8744H78.5436C78.0452 38.8595 76.7576 39.9998 74.4317 39.9998ZM72.6041 33.9179H76.1761C76.0515 32.6508 75.4285 31.9751 74.4317 31.9751C73.4348 31.9751 72.8118 32.6508 72.6041 33.9179Z" fill="#66A80F"/>
<path d="M82.4454 31.8891H82.1962V37.2108C82.1962 37.5909 82.4454 37.8443 82.9023 37.8443H83.65V39.7027C82.8608 39.7872 82.0301 39.7872 81.1579 39.7027C80.2856 39.6182 79.8287 39.0269 79.8703 37.971V27.4121H81.1163C81.7393 27.4121 82.2793 28.0034 82.2793 28.6369V30.1574H83.6915V30.6643C83.6084 31.34 83.11 31.8891 82.4454 31.8891Z" fill="#66A80F"/>
</svg>
